<svg width="49" height="48" viewBox="0 0 49 48" fill="none" xmlns="http://www.w3.org/2000/svg">
<path opacity="0.4" d="M34.7084 24C34.7084 29.5228 30.1379 34 24.5 34C18.8621 34 14.2917 29.5228 14.2917 24C14.2917 18.4772 18.8621 14 24.5 14C30.1379 14 34.7084 18.4772 34.7084 24Z" fill="#FEDF6F"/>
<path d="M34.7084 24C34.7084 29.5228 30.1379 34 24.5 34C18.8621 34 14.2917 29.5228 14.2917 24C14.2917 18.4772 18.8621 14 24.5 14C30.1379 14 34.7084 18.4772 34.7084 24Z" stroke="#FEDF6F" stroke-width="3"/>
<path d="M24.5 4C23.7297 4.66666 22.6512 6.4 24.5 8M24.5 40C25.2703 40.6666 26.3487 42.4 24.5 44M39.8125 9.00542C38.7273 8.93964 36.5975 9.44586 36.7586 11.9969M11.2205 35C11.2876 36.063 10.7709 38.1494 8.16665 37.9916M10.2138 9C10.1466 10.064 10.6639 12.1526 13.2708 11.9946M36.75 35.0052C37.8351 34.943 39.965 35.4216 39.8039 37.8336M44.9166 24C44.2362 23.2454 42.4666 22.189 40.8333 24M8.16665 23C7.4861 23.7546 5.71665 24.811 4.08331 23" stroke="#FEDF6F" stroke-width="3" stroke-linecap="round"/>
</svg>
